<?xml version="1.0" encoding="UTF-8"?>
<svg version="1.1" xmlns="http://www.w3.org/2000/svg" width="196" height="196">
<path d="M0 0 C1.93659233 -0.01029488 1.93659233 -0.01029488 3.91230774 -0.02079773 C7.41642992 -0.03856751 10.92029953 -0.03759225 14.42445302 -0.03185534 C17.36417954 -0.02874116 20.30385907 -0.03488018 23.24357885 -0.04089409 C30.18358541 -0.05488326 37.1234687 -0.05342384 44.06347656 -0.04199219 C51.19478924 -0.03050419 58.32572613 -0.04461068 65.45698935 -0.07138866 C71.609396 -0.0936158 77.76168528 -0.10016769 83.9141292 -0.09431225 C87.57583571 -0.09095964 91.2373012 -0.09324414 94.89897346 -0.11056328 C98.98366894 -0.12904522 103.06764224 -0.11477362 107.15234375 -0.09765625 C108.94424133 -0.1121582 108.94424133 -0.1121582 110.77233887 -0.12695312 C119.47059662 -0.05093635 127.52367082 1.17987095 134.44897461 6.77905273 C139.5570641 13.28025754 142.74997828 18.75716317 142.77890015 27.17668152 C142.7916951 28.86907455 142.7916951 28.86907455 142.80474854 30.59565735 C142.80338898 32.43090218 142.80338898 32.43090218 142.80200195 34.30322266 C142.80871918 35.60316162 142.8154364 36.90310059 142.82235718 38.24243164 C142.83997749 41.7985056 142.84471099 45.35448321 142.84598875 48.91059661 C142.84741365 51.13692895 142.85168975 53.36323706 142.85698318 55.58956337 C142.87547336 63.36994598 142.88365545 71.15026021 142.88208008 78.93066406 C142.88088033 86.16067327 142.90195228 93.39038315 142.9335674 100.62031668 C142.95980683 106.84477606 142.97044411 113.06913817 142.96916926 119.29365236 C142.96866169 123.00353009 142.97422995 126.7131419 142.99552536 130.4229641 C143.01867088 134.56815056 143.00934026 138.7126764 142.99731445 142.85791016 C143.00855347 144.07128555 143.01979248 145.28466095 143.03137207 146.5348053 C142.96484096 155.59461778 141.65203555 164.33902444 135.44897461 171.34155273 C127.43991302 178.43932772 117.35078445 178.99077197 107.13647461 178.92163086 C105.20010132 178.93214478 105.20010132 178.93214478 103.22460938 178.94287109 C99.71621342 178.96094853 96.20829332 178.95410245 92.69989014 178.94135475 C89.00816678 178.93114537 85.31648102 178.94064226 81.62475586 178.94689941 C75.42806776 178.95415294 69.23157107 178.94464882 63.03491211 178.92553711 C55.89622149 178.90377263 48.75798803 178.91082565 41.61930847 178.93284273 C35.46266296 178.9510626 29.30615415 178.95352307 23.14949036 178.94308805 C19.48443115 178.93688909 15.81958601 178.93591716 12.15454102 178.94923401 C8.06491536 178.96305874 3.97606341 178.94383608 -0.11352539 178.92163086 C-1.90777954 178.93377625 -1.90777954 178.93377625 -3.73828125 178.94616699 C-12.94666094 178.85398443 -21.48024319 177.47286559 -28.48852539 171.09155273 C-33.95690545 164.98214248 -35.60375456 157.94733493 -35.62896729 149.87902832 C-35.63467743 148.78027374 -35.64038757 147.68151917 -35.64627075 146.54946899 C-35.64738861 145.35357147 -35.64850647 144.15767395 -35.6496582 142.92553711 C-35.65462311 141.65821747 -35.65958801 140.39089783 -35.66470337 139.08517456 C-35.67779164 135.61363461 -35.68426611 132.14211397 -35.68871403 128.67055321 C-35.6916524 126.49631367 -35.69575878 124.32207932 -35.7002182 122.14784241 C-35.71388786 115.33000448 -35.72355537 108.51217851 -35.72742009 101.69432783 C-35.73189037 93.85326161 -35.74939239 86.01237062 -35.77842069 78.17135763 C-35.80013314 72.09296874 -35.81012955 66.01462878 -35.81146121 59.93620157 C-35.81250304 56.31459203 -35.81827591 52.6931473 -35.83628082 49.07157898 C-35.8560305 45.02018862 -35.85143476 40.96915806 -35.8449707 36.91772461 C-35.85418549 35.73802094 -35.86340027 34.55831726 -35.87289429 33.34286499 C-35.82845852 24.39600774 -35.68707576 13.3770705 -29.55102539 6.27905273 C-21.64728319 -0.42542288 -9.79536508 -0.03697488 0 0 Z M-22.48852539 18.40405273 C-23.5202117 21.49911165 -23.62172243 23.64260437 -23.63569641 26.88752747 C-23.64285172 28.02730545 -23.65000702 29.16708344 -23.65737915 30.34140015 C-23.66006805 31.59288849 -23.66275696 32.84437683 -23.66552734 34.13378906 C-23.67209854 35.45107498 -23.67866974 36.7683609 -23.68544006 38.12556458 C-23.70646363 42.49572535 -23.71684024 46.86588642 -23.72680664 51.23608398 C-23.73085471 52.74132493 -23.73497165 54.24656569 -23.73915672 55.75180626 C-23.75820395 62.823253 -23.77243646 69.89468932 -23.78076869 76.96615678 C-23.79054247 85.12601216 -23.81686737 93.28559637 -23.85726959 101.44535619 C-23.88743608 107.75459008 -23.90223803 114.06374626 -23.90554971 120.37305087 C-23.90789943 124.14039723 -23.9168495 127.90745374 -23.94201088 131.67472267 C-23.96530657 135.21985316 -23.96951921 138.76450326 -23.9592495 142.30969048 C-23.95851881 144.22654205 -23.9775992 146.14336931 -23.99731445 148.06011963 C-23.98596972 156.5655324 -23.98596972 156.5655324 -19.48852539 163.40405273 C-15.78740769 166.03533608 -13.27852056 166.77984816 -8.7578125 166.78500366 C-7.61384003 166.79346313 -6.46986755 166.80192261 -5.29122925 166.81063843 C-4.04536041 166.80456573 -2.79949158 166.79849304 -1.51586914 166.79223633 C-0.19668488 166.79749329 1.12249939 166.80275024 2.48165894 166.8081665 C6.09323802 166.82182468 9.70455954 166.81654778 13.31614304 166.80702925 C17.09878983 166.79942483 20.88141483 166.80648043 24.6640625 166.81118774 C31.01590934 166.81664303 37.36765148 166.80945969 43.71948242 166.79516602 C51.0591817 166.77883988 58.39863095 166.78412855 65.73832417 166.80064523 C72.04420516 166.81426662 78.35001096 166.81617659 84.65590191 166.80832922 C88.42031133 166.80365627 92.18460329 166.80301739 95.94900513 166.81293869 C100.14575975 166.8232272 104.3420845 166.80896034 108.53881836 166.79223633 C109.78468719 166.79830902 111.03055603 166.80438171 112.31417847 166.81063843 C113.45815094 166.80217896 114.60212341 166.79371948 115.78076172 166.78500366 C116.77256943 166.78387259 117.76437714 166.78274151 118.78623962 166.78157616 C123.17532093 166.17356217 125.76947973 164.17482469 128.7926178 161.03443909 C131.81944761 156.05265667 131.05692877 149.93885242 131.01318359 144.31787109 C131.01858658 142.9985408 131.02398956 141.67921051 131.02955627 140.31990051 C131.04348413 136.71242878 131.03236095 133.1054354 131.01584506 129.49799037 C131.00196557 125.71802214 131.00845782 121.93808085 131.01197815 118.15809631 C131.01467766 111.81218786 131.00122596 105.46646884 130.97802734 99.12060547 C130.95140767 91.78826029 130.94967505 84.45623153 130.96141571 77.12385458 C130.97220099 70.06304886 130.9660013 63.00235739 130.95186043 55.94156075 C130.94610826 52.93966528 130.9461772 49.93785363 130.95092583 46.93595695 C130.95659152 42.74407647 130.93736253 38.55266722 130.91552734 34.36083984 C130.92002899 33.11654205 130.92453064 31.87224426 130.9291687 30.59024048 C130.91926407 29.44771317 130.90935944 28.30518585 130.89915466 27.1280365 C130.89672477 26.13752761 130.89429487 25.14701872 130.89179134 24.12649441 C130.27201202 19.68989482 127.92920663 16.25216275 124.51147461 13.40405273 C121.41227743 12.37098701 119.27060817 12.27333828 116.02127075 12.26361084 C114.30943604 12.25504562 114.30943604 12.25504562 112.5630188 12.24630737 C111.30995941 12.24518951 110.05690002 12.24407166 108.76586914 12.24291992 C107.44697693 12.23795502 106.12808472 12.23299011 104.76922607 12.22787476 C101.14934924 12.21475772 97.52949095 12.20830728 93.90959406 12.2038641 C91.64798769 12.20093253 89.38638638 12.19682758 87.12478256 12.19235992 C80.04852927 12.17868745 72.97228755 12.16901931 65.89602196 12.16515803 C57.72771602 12.16067633 49.55957734 12.14312229 41.39132226 12.11415744 C35.07700734 12.09254386 28.7627395 12.08245395 22.44838798 12.08111691 C18.67721812 12.08006874 14.90620553 12.07415836 11.13507462 12.0562973 C7.58754248 12.03982187 4.04028594 12.03765836 0.49272919 12.04643631 C-1.42787172 12.04757409 -3.34846347 12.033853 -5.26901245 12.01968384 C-6.41587524 12.02525299 -7.56273804 12.03082214 -8.74435425 12.03656006 C-9.73875959 12.0350935 -10.73316494 12.03362694 -11.75770378 12.03211594 C-16.20222486 12.63745791 -19.63735878 14.98265281 -22.48852539 18.40405273 Z " fill="#E6E6E6" transform="translate(44.488525390625,8.595947265625)"/>
<path d="M0 0 C1.28961193 2.57922387 0.79211692 3.40291211 0.00390625 6.1328125 C-0.22490234 6.93847656 -0.45371094 7.74414062 -0.68945312 8.57421875 C-0.93630859 9.41597656 -1.18316406 10.25773437 -1.4375 11.125 C-1.80198242 12.39923828 -1.80198242 12.39923828 -2.17382812 13.69921875 C-2.77611927 15.80133294 -3.38723667 17.90091454 -4 20 C0.29 20.33 4.58 20.66 9 21 C7.15069333 25.62326669 5.02141367 28.78690178 1.9375 32.5625 C0.94655831 33.79448156 -0.04300084 35.0275763 -1.03125 36.26171875 C-1.52753906 36.88095215 -2.02382812 37.50018555 -2.53515625 38.13818359 C-5.54412761 41.96258619 -8.37469109 45.9222665 -11.22265625 49.8671875 C-11.80917969 50.57101563 -12.39570312 51.27484375 -13 52 C-13.66 52 -14.32 52 -15 52 C-13.33333333 45.33333333 -11.66666667 38.66666667 -10 32 C-16.93 31.505 -16.93 31.505 -24 31 C-21.51235722 26.8539287 -18.87220361 23.1368601 -15.875 19.375 C-15.39434082 18.76760986 -14.91368164 18.16021973 -14.41845703 17.53442383 C-2.44793481 2.44793481 -2.44793481 2.44793481 0 0 Z " fill="#E1E1E1" transform="translate(105,72)"/>
<path d="M0 0 C1.65 0 3.3 0 5 0 C4.52439591 11.39071799 0.74758441 19.61995972 -7 28 C-17.32234535 37.47970491 -28.49726364 39.6400878 -42.06005859 39.13183594 C-50.30998897 38.57118122 -56.50137892 34.85042008 -63 30 C-62.34 28.68 -61.68 27.36 -61 26 C-57.61653227 26 -56.73406955 26.61889643 -53.9375 28.375 C-44.57050201 33.69303757 -34.67539314 33.96660878 -24.33203125 31.31640625 C-15.27873519 28.15827972 -8.31642477 22.00409158 -3.99609375 13.453125 C-2.22331928 9.08723335 -1.05429526 4.58575579 0 0 Z " fill="#DEDEDE" transform="translate(134,100)"/>
<path d="M0 0 C3.61640758 0.33442049 6.02663616 2.26832945 8.9375 4.3125 C20.78653334 11.90963747 34.28492878 14.1996309 48.10644531 11.60449219 C56.01322305 9.70305504 62.66403201 6.44661952 68.94921875 1.2578125 C71 0 71 0 73.26953125 0.3046875 C73.84058594 0.53414062 74.41164063 0.76359375 75 1 C75 5 75 5 73.6015625 6.52734375 C59.50626527 16.58347478 44.17188569 21.36198095 26.765625 18.4609375 C17.10120782 16.22880054 7.65087078 12.47008099 0 6 C-1.25390625 3.8125 -1.25390625 3.8125 -2 2 C-1.34 1.34 -0.68 0.68 0 0 Z " fill="#DADADA" transform="translate(61,138)"/>
<path d="M0 0 C1.85090421 1.45182449 3.49299349 2.93608984 5.1015625 4.6484375 C4.4415625 5.9684375 3.7815625 7.2884375 3.1015625 8.6484375 C-0.38357476 7.35991844 -3.30438777 5.81847722 -6.3984375 3.7734375 C-18.66310229 -3.58536138 -33.04048515 -5.85665985 -46.99609375 -2.46875 C-54.3315228 -0.35846995 -60.52531511 2.92230754 -66.62890625 7.48828125 C-67.37785156 7.87113281 -68.12679687 8.25398438 -68.8984375 8.6484375 C-71.19921875 7.83984375 -71.19921875 7.83984375 -72.8984375 6.6484375 C-70.19118827 0.06751783 -63.58407251 -3.21140692 -57.30078125 -5.87890625 C-37.43015614 -13.08749264 -17.72841206 -12.12996614 0 0 Z " fill="#DBDBDB" transform="translate(131.8984375,49.3515625)"/>
<path d="M0 0 C0 1.65 0 3.3 0 5 C-0.83402344 5.21914063 -1.66804688 5.43828125 -2.52734375 5.6640625 C-12.91371261 8.59080562 -21.97817941 12.64500043 -28 22 C-30.66064163 27.4442172 -32.47350678 33.14844265 -34 39 C-35.65 39 -37.3 39 -39 39 C-38.95212249 28.17968367 -34.44781099 18.65943355 -27.046875 10.81640625 C-19.05320882 3.72279027 -10.8350155 -0.54175078 0 0 Z " fill="#D9D9D9" transform="translate(96,57)"/>
<path d="M0 0 C11.55820464 0.2417115 19.56657702 3.91616984 27.9609375 11.8359375 C34.6230468 18.90645197 38.68093088 26.8313303 39.1875 36.625 C39.125625 37.40875 39.06375 38.1925 39 39 C37.35 39 35.7 39 34 39 C33.78085938 38.16597656 33.56171875 37.33195312 33.3359375 36.47265625 C30.3734228 25.95934189 26.31288865 17.21492773 17 11 C11.56579046 8.02786013 6.0292281 6.31546795 0 5 C0 3.35 0 1.7 0 0 Z " fill="#DADADA" transform="translate(100,57)"/>
<path d="M0 0 C0.66 0 1.32 0 2 0 C10.87665852 10.50889044 17.4917866 23.99702368 17 38 C15.02 38 13.04 38 11 38 C10.79697266 36.61941406 10.79697266 36.61941406 10.58984375 35.2109375 C8.91325906 25.35221793 5.84673678 17.74748397 1 9 C0.32553748 7.67059317 -0.34508888 6.33914661 -1 5 C-1.66 5 -2.32 5 -3 5 C-3 4.34 -3 3.68 -3 3 C-2.34 3 -1.68 3 -1 3 C-0.67 2.01 -0.34 1.02 0 0 Z " fill="#D4D4D4" transform="translate(140,58)"/>
<path d="M0 0 C1.98 0 3.96 0 6 0 C5.49865762 12.73409649 1.98391427 23.90806678 -6 34 C-7.62678221 35.38171459 -9.28511627 36.72927998 -11 38 C-12.2265625 35.875 -12.2265625 35.875 -13 33 C-11.5859375 30.125 -11.5859375 30.125 -9.375 27 C-3.86938735 18.78827884 -0.91749878 9.86311186 0 0 Z " fill="#D7D7D7" transform="translate(151,100)"/>
<path d="M0 0 C1.98 0 3.96 0 6 0 C6.25523438 1.34191406 6.25523438 1.34191406 6.515625 2.7109375 C8.61570793 13.18901085 10.76910521 22.06653619 17.92578125 30.2109375 C19 32 19 32 18.66796875 34.2265625 C18.44753906 34.81179687 18.22710937 35.39703125 18 36 C14 36 14 36 12.4375 34.53125 C4.75062208 23.66935729 0.7237842 13.35257059 0 0 Z " fill="#D6D6D6" transform="translate(39,100)"/>
<path d="M0 0 C1.32 0.66 2.64 1.32 4 2 C2.58759013 5.86480312 0.74452114 9.14315121 -1.4375 12.625 C-6.00743578 20.34923656 -8.01588851 28.14299657 -9 37 C-10.98 37 -12.96 37 -15 37 C-14.46105792 23.31087127 -10.34264595 9.58816721 0 0 Z " fill="#D8D8D8" transform="translate(54,59)"/>
<path d="M0 0 C0 1.65 0 3.3 0 5 C-1.17175781 5.4846875 -2.34351563 5.969375 -3.55078125 6.46875 C-12.9164096 10.43274173 -21.11676045 14.47114963 -29 21 C-30.32 20.34 -31.64 19.68 -33 19 C-33 18.01 -33 17.02 -33 16 C-24.46651697 8.04732995 -11.92368898 0 0 0 Z " fill="#D6D6D6" transform="translate(80,25)"/>
<path d="M0 0 C12.13903463 1.8836433 22.80546749 7.99735133 32 16 C31.67 17.32 31.34 18.64 31 20 C26.54356279 20 26.15729576 19.63524821 22.875 17 C15.60917381 11.64911294 7.27321138 8.46970194 -1 5 C-0.67 3.35 -0.34 1.7 0 0 Z " fill="#D8D8D8" transform="translate(117,25)"/>
<path d="M0 0 C1.32 0.66 2.64 1.32 4 2 C0.26902309 10.80818261 -10.64720169 15.54176472 -19 19 C-22.01685454 19.89056864 -24.88997913 20.48166319 -28 21 C-28.33 19.35 -28.66 17.7 -29 16 C-27.82824219 15.5153125 -26.65648438 15.030625 -25.44921875 14.53125 C-16.0835904 10.56725827 -7.88323955 6.52885037 0 0 Z " fill="#D9D9D9" transform="translate(145,150)"/>
<path d="M0 0 C3.60470323 1.2941579 6.29600361 2.84609871 9.3125 5.1875 C15.97439479 9.99943007 23.43471994 12.91193903 31 16 C30.505 18.475 30.505 18.475 30 21 C17.94388569 19.30791378 6.46318265 12.6524551 -2 4 C-1.34 2.68 -0.68 1.36 0 0 Z " fill="#DBDBDB" transform="translate(49,150)"/>
<path d="M0 0 C7.09463656 2.60619302 11.49856491 11.93831786 14.6953125 18.45703125 C18 26.26553571 18 26.26553571 18 29 C16.35 29.33 14.7 29.66 13 30 C12.58488159 29.18378174 12.58488159 29.18378174 12.16137695 28.35107422 C10.88625113 25.85495902 9.59949458 23.36501504 8.3125 20.875 C7.87744141 20.0190625 7.44238281 19.163125 6.99414062 18.28125 C4.98127319 14.40461643 3.03289309 10.83523654 0.16015625 7.52734375 C-2 5 -2 5 -1.875 2.6875 C-1 1 -1 1 0 0 Z " fill="#D5D5D5" transform="translate(152,46)"/>
<path d="M0 0 C3.50080264 1.35038301 4.41667968 5.08976428 5.87060547 8.33227539 C8.43895827 13.81675983 10.97657043 18.64991306 15.06201172 23.19165039 C15.99560547 24.76977539 15.99560547 24.76977539 15.83544922 26.91040039 C15.55830078 27.52399414 15.28115234 28.13758789 14.99560547 28.76977539 C14.00560547 29.09977539 13.01560547 29.42977539 11.99560547 29.76977539 C-2.21793037 11.95547714 -2.21793037 11.95547714 -4.00439453 0.76977539 C-2.00439453 -0.23022461 -2.00439453 -0.23022461 0 0 Z " fill="#D6D6D6" transform="translate(30.00439453125,120.230224609375)"/>
<path d="M0 0 C1.65 0 3.3 0 5 0 C5.23074219 0.83402344 5.46148437 1.66804688 5.69921875 2.52734375 C7.74107368 9.57295383 10.08289669 15.78721729 14 22 C12.625 23.5 12.625 23.5 11 25 C10.34 25 9.68 25 9 25 C3.58175885 17.7706476 -0.70768335 9.1998835 0 0 Z " fill="#DBDBDB" transform="translate(57,100)"/>
<path d="M0 0 C0.8971875 0.309375 0.8971875 0.309375 1.8125 0.625 C0.90757813 1.18767578 0.90757813 1.18767578 -0.015625 1.76171875 C-4.4973993 4.63150004 -8.15399087 7.14068215 -11.1875 11.625 C-11.5175 10.965 -11.8475 10.305 -12.1875 9.625 C-11.08783225 8.32950101 -9.98258199 7.03873929 -8.875 5.75 C-8.26011719 5.03070312 -7.64523438 4.31140625 -7.01171875 3.5703125 C-3.15626236 -0.54107355 -3.15626236 -0.54107355 0 0 Z " fill="#151515" transform="translate(23.1875,11.375)"/>
<path d="M0 0 C1 2 1 2 0.0625 5.125 C-0.288125 6.07375 -0.63875 7.0225 -1 8 C-1.99 8 -2.98 8 -4 8 C-6.15028304 8.94978897 -6.15028304 8.94978897 -8 10 C-7.04367001 8.70684939 -6.08486149 7.41553147 -5.125 6.125 C-4.59132813 5.40570313 -4.05765625 4.68640625 -3.5078125 3.9453125 C-2 2 -2 2 0 0 Z " fill="#B8B8B8" transform="translate(105,72)"/>
<path d="M0 0 C0.99 0 1.98 0 3 0 C2.42655063 2.86724686 2.1385485 3.8614515 0 6 C-0.99 6 -1.98 6 -3 6 C-2.42655063 3.13275314 -2.1385485 2.1385485 0 0 Z " fill="#B3B3B3" transform="translate(159,33)"/>
<path d="M0 0 C0.99 0.33 1.98 0.66 3 1 C1.68 2.65 0.36 4.3 -1 6 C-1.99 5.67 -2.98 5.34 -4 5 C-2.68 3.35 -1.36 1.7 0 0 Z " fill="#CECECE" transform="translate(38,156)"/>
<path d="M0 0 C1.98 0 3.96 0 6 0 C6 0.99 6 1.98 6 3 C4.35 3 2.7 3 1 3 C0.67 2.01 0.34 1.02 0 0 Z " fill="#C0C0C0" transform="translate(32,150)"/>
<path d="M0 0 C1.98 0 3.96 0 6 0 C6 0.99 6 1.98 6 3 C4.02 3 2.04 3 0 3 C0 2.01 0 1.02 0 0 Z " fill="#C5C5C5" transform="translate(158,42)"/>
<path d="M0 0 C0.99 0 1.98 0 3 0 C3 1.98 3 3.96 3 6 C2.01 6 1.02 6 0 6 C0 4.02 0 2.04 0 0 Z " fill="#BEBEBE" transform="translate(150,31)"/>
<path d="M0 0 C0.99 0 1.98 0 3 0 C3 1.65 3 3.3 3 5 C2.01 5.33 1.02 5.66 0 6 C0 4.02 0 2.04 0 0 Z " fill="#C0C0C0" transform="translate(44,158)"/>
<path d="M0 0 C0.99 0 1.98 0 3 0 C2.67 1.32 2.34 2.64 2 4 C1.01 3.67 0.02 3.34 -1 3 C-0.67 2.01 -0.34 1.02 0 0 Z " fill="#949494" transform="translate(149,147)"/>
<path d="M0 0 C0.99 0.33 1.98 0.66 3 1 C2.67 1.99 2.34 2.98 2 4 C1.01 3.67 0.02 3.34 -1 3 C-0.67 2.01 -0.34 1.02 0 0 Z " fill="#A1A1A1" transform="translate(44,45)"/>
</svg>
